<svg xmlns="http://www.w3.org/2000/svg" viewBox="0 0 200 60" fill="#00205b">
  <path d="M37.5,10c-16.5,0-30,13.5-30,30h60C67.5,23.5,54,10,37.5,10z M37.5,35c-2.8,0-5-2.2-5-5s2.2-5,5-5s5,2.2,5,5S40.3,35,37.5,35z"/>
  <path d="M75,25h10v5h0.2c1.2-3,4.1-5.7,8.4-5.7c0.6,0,1.2,0.1,1.8,0.2v9.8c-0.8-0.3-2.1-0.5-3.3-0.5c-4.4,0-6.9,3.2-6.9,8.7V55H75V25z"/>
  <path d="M100,25h10v5h0.2c1.9-3.7,5.5-5.7,9.8-5.7c7.5,0,11.5,5.1,11.5,12.8V55h-10V39.1c0-3.9-1.1-6.6-5-6.6c-4.4,0-6.5,3.4-6.5,8.7V55h-10V25z"/>
  <path d="M135,25h10v5h0.2c1.9-3.7,5.5-5.7,9.8-5.7c7.5,0,11.5,5.1,11.5,12.8V55h-10V39.1c0-3.9-1.1-6.6-5-6.6c-4.4,0-6.5,3.4-6.5,8.7V55h-10V25z"/>
  <path d="M170,15h10v10h7v8h-7v12c0,2.5,1.1,3.5,3.5,3.5c1.1,0,2.4-0.1,3.5-0.3v8.2c-1.9,0.6-4.1,0.8-6.4,0.8c-6.7,0-10.6-2.8-10.6-9.5V33h-5v-8h5V15z"/>
</svg>