<svg xmlns="http://www.w3.org/2000/svg" viewBox="0 0 200 60" fill="#00B4D8">
  <path d="M40,15c-8.3,0-15,6.7-15,15s6.7,15,15,15s15-6.7,15-15S48.3,15,40,15z M40,40c-5.5,0-10-4.5-10-10s4.5-10,10-10s10,4.5,10,10S45.5,40,40,40z"/>
  <path d="M70,15h10v10h10V15h10v30h-10V30H80v15H70V15z"/>
  <path d="M110,15h10v10h10V15h10v30h-10V30h-10v15h-10V15z"/>
  <path d="M150,30c0-8.3,6.7-15,15-15s15,6.7,15,15s-6.7,15-15,15S150,38.3,150,30z M155,30c0,5.5,4.5,10,10,10s10-4.5,10-10s-4.5-10-10-10S155,24.5,155,30z"/>
  <path d="M40,25v10l10-5L40,25z"/>
</svg>